<svg width="130" height="22" viewBox="0 0 130 22" fill="none" xmlns="http://www.w3.org/2000/svg">
<path d="M129.487 13.7273C129.487 15.2945 129.194 16.6368 128.607 17.7543C128.024 18.8669 127.229 19.7192 126.22 20.3111C125.216 20.9029 124.078 21.1989 122.804 21.1989C121.53 21.1989 120.389 20.9029 119.381 20.3111C118.377 19.7145 117.582 18.8598 116.994 17.7472C116.412 16.6297 116.121 15.2898 116.121 13.7273C116.121 12.16 116.412 10.8201 116.994 9.70739C117.582 8.58996 118.377 7.73532 119.381 7.14346C120.389 6.55161 121.53 6.25568 122.804 6.25568C124.078 6.25568 125.216 6.55161 126.22 7.14346C127.229 7.73532 128.024 8.58996 128.607 9.70739C129.194 10.8201 129.487 12.16 129.487 13.7273ZM126.838 13.7273C126.838 12.6241 126.665 11.6937 126.32 10.9361C125.979 10.1738 125.505 9.59848 124.899 9.21023C124.293 8.81723 123.595 8.62074 122.804 8.62074C122.013 8.62074 121.315 8.81723 120.709 9.21023C120.103 9.59848 119.627 10.1738 119.281 10.9361C118.94 11.6937 118.77 12.6241 118.77 13.7273C118.77 14.8305 118.94 15.7633 119.281 16.5256C119.627 17.2831 120.103 17.8584 120.709 18.2514C121.315 18.6397 122.013 18.8338 122.804 18.8338C123.595 18.8338 124.293 18.6397 124.899 18.2514C125.505 17.8584 125.979 17.2831 126.32 16.5256C126.665 15.7633 126.838 14.8305 126.838 13.7273Z" fill="#009D71"/>
<path d="M102.371 21V6.45454H111.69V8.66335H105.006V12.6122H111.05V14.821H105.006V21H102.371Z" fill="#009D71"/>
<path d="M97.1003 6.45454V21H94.7565L87.9028 11.0923H87.7821V21H85.1472V6.45454H87.5051L94.3517 16.3693H94.4795V6.45454H97.1003Z" fill="#009D71"/>
<path d="M79.8938 6.45454V21H77.2589V6.45454H79.8938Z" fill="#009D71"/>
<path d="M62.2541 21H59.4416L64.5624 6.45454H67.8152L72.943 21H70.1305L66.2456 9.4375H66.132L62.2541 21ZM62.3465 15.2969H70.0169V17.4134H62.3465V15.2969Z" fill="#009D71"/>
<path d="M44.9784 21V6.45454H50.433C51.5504 6.45454 52.4879 6.64867 53.2455 7.03693C54.0078 7.42519 54.5831 7.9697 54.9713 8.67045C55.3643 9.36648 55.5608 10.1785 55.5608 11.1065C55.5608 12.0393 55.3619 12.849 54.9642 13.5355C54.5712 14.2173 53.9912 14.7453 53.2241 15.1193C52.4571 15.4886 51.5149 15.6733 50.3974 15.6733H46.5125V13.4858H50.0423C50.6957 13.4858 51.2308 13.3958 51.6474 13.2159C52.0641 13.0312 52.3719 12.7637 52.5707 12.4134C52.7743 12.0582 52.8761 11.6226 52.8761 11.1065C52.8761 10.5904 52.7743 10.1501 52.5707 9.78551C52.3671 9.41619 52.057 9.13684 51.6403 8.94744C51.2237 8.75331 50.6863 8.65625 50.0281 8.65625H47.6134V21H44.9784ZM52.4926 14.4091L56.0935 21H53.1531L49.6162 14.4091H52.4926Z" fill="#009D71"/>
<path d="M28.7361 8.66335V6.45454H40.3412V8.66335H35.8455V21H33.2318V8.66335H28.7361Z" fill="#009D71"/>
<path d="M17.5026 21V6.45454H20.1376V18.7912H26.5438V21H17.5026Z" fill="#009D71"/>
<path d="M9.60369 7.81419C9.60369 7.34004 9.93667 6.93107 10.401 6.83495L12.2386 6.45454V15.9574C12.2386 16.9991 11.9924 17.9152 11.5 18.706C11.0123 19.4967 10.3258 20.1146 9.44034 20.5597C8.55492 21 7.52036 21.2202 6.33665 21.2202C5.1482 21.2202 4.11127 21 3.22585 20.5597C2.34044 20.1146 1.65388 19.4967 1.16619 18.706C0.678504 17.9152 0.434659 16.9991 0.434659 15.9574V6.45454L2.27231 6.83495C2.73662 6.93107 3.0696 7.34004 3.0696 7.81419V15.7372C3.0696 16.3433 3.20218 16.883 3.46733 17.3565C3.73722 17.83 4.116 18.2017 4.60369 18.4716C5.09138 18.7367 5.66903 18.8693 6.33665 18.8693C7.00426 18.8693 7.58191 18.7367 8.0696 18.4716C8.56203 18.2017 8.94081 17.83 9.20597 17.3565C9.47112 16.883 9.60369 16.3433 9.60369 15.7372V7.81419Z" fill="#009D71"/>
<circle cx="6.33665" cy="2.69317" r="2.5" fill="#009D71"/>
</svg>
